<svg xmlns="http://www.w3.org/2000/svg" width="364.94" height="88.18" viewBox="0 0 364.94 88.18"><defs><style>.cls-1{fill:#3d3f45;}</style></defs><title>Asset 1</title><g id="Layer_2" data-name="Layer 2"><g id="Layer_1-2" data-name="Layer 1"><path class="cls-1" d="M87.54,55.23V1.7h18.17V55.35c0,10.29,5.09,17.8,15.75,17.8s15.74-7.51,15.74-17.8V1.7h18.17V55.23c0,20.71-10.29,32.94-33.91,32.94S87.54,75.94,87.54,55.23ZM260.87,1.7H279V86.48H260.87Zm74.76,34.16c20.11,3.39,29.31,10.42,29.31,25.68,0,16.35-14.41,26.65-34.16,26.65-21.44,0-34.4-12.11-35.12-25.8l18.17-2.91c.85,8.11,6.3,14.05,17,14.05,8.6,0,15.63-3.27,15.63-11,0-6.3-4.6-9.33-17.8-11.39-17.68-2.79-31.13-8.6-31.13-25.68S311.16,0,329.94,0c17.56,0,30.76,8.36,33.67,23.26l-18.41,4c-1.33-7.75-6.78-12.6-15.74-12.6S315.89,18.29,315.89,24C315.89,31.25,321.82,33.55,335.63,35.85ZM30.74,1.7,0,86.48H17.8l22-64.92L50,52.45H37.56l-4.5,14.41H55l6.78,19.62H80.54L50,1.7m174.09,50c9.93-3.88,16.11-11.31,16.11-23.9,0-18-12.84-26.12-32.46-26.12h-31V86.48h18V16.71h10.9c10.54,0,15.87,2.86,15.87,11.1,0,8.49-6.71,11.78-21.87,11.78l24.62,46.88h19.29Z"/></g></g></svg>